<svg width="27" height="27" viewBox="0 0 27 27" fill="none" xmlns="http://www.w3.org/2000/svg">
<path d="M0 13.2632C0 5.93812 5.93812 0 13.2632 0H18.9474C23.1331 0 26.5263 3.39321 26.5263 7.57895V13.2632C26.5263 20.5882 20.5882 26.5263 13.2632 26.5263C5.93812 26.5263 0 20.5882 0 13.2632Z" fill="#9370FE"/>
<path d="M16.8934 10.8192C17.406 11.0689 17.9866 11.1428 18.5454 11.0296V16.7654C18.5454 16.9025 18.491 17.0339 18.3941 17.1308C18.2972 17.2278 18.1657 17.2822 18.0287 17.2822H8.72726C8.59021 17.2822 8.45877 17.2278 8.36186 17.1308C8.26495 17.0339 8.21051 16.9025 8.21051 16.7654V8.4975C8.21051 8.36046 8.26495 8.22902 8.36186 8.13211C8.45877 8.0352 8.59021 7.98076 8.72726 7.98076H15.4966C15.4625 8.14767 15.445 8.32078 15.445 8.4975C15.4441 9.11143 15.6628 9.70543 16.0614 10.1723L13.4095 12.4677L10.0951 9.65398L9.42641 10.4415L13.4157 13.8288L16.8934 10.8192ZM18.0287 10.0477C17.8251 10.0477 17.6235 10.0076 17.4354 9.92974C17.2474 9.85183 17.0765 9.73764 16.9325 9.59369C16.7886 9.44974 16.6744 9.27884 16.5965 9.09076C16.5186 8.90267 16.4785 8.70109 16.4785 8.4975C16.4785 8.29392 16.5186 8.09234 16.5965 7.90425C16.6744 7.71617 16.7886 7.54527 16.9325 7.40132C17.0765 7.25737 17.2474 7.14318 17.4354 7.06527C17.6235 6.98736 17.8251 6.94727 18.0287 6.94727C18.4398 6.94727 18.8342 7.11059 19.1249 7.40132C19.4156 7.69205 19.5789 8.08636 19.5789 8.4975C19.5789 8.90865 19.4156 9.30296 19.1249 9.59369C18.8342 9.88442 18.4398 10.0477 18.0287 10.0477Z" fill="white"/>
</svg>
