<svg width="27" height="27" viewBox="0 0 27 27" fill="none" xmlns="http://www.w3.org/2000/svg">
<path d="M0 13.2632C0 5.93812 5.93812 0 13.2632 0H18.9474C23.1331 0 26.5263 3.39321 26.5263 7.57895V13.2632C26.5263 20.5882 20.5882 26.5263 13.2632 26.5263C5.93812 26.5263 0 20.5882 0 13.2632Z" fill="#9370FE"/>
<path d="M18.9473 16.0549V18.2882C18.9474 18.4481 18.8868 18.602 18.7778 18.719C18.6688 18.836 18.5195 18.9073 18.36 18.9185C18.084 18.9374 17.8585 18.9475 17.6842 18.9475C12.1029 18.9475 7.57892 14.4235 7.57892 8.84226C7.57892 8.66794 7.58839 8.44247 7.60797 8.16647C7.61916 8.00696 7.69044 7.85763 7.80743 7.74862C7.92441 7.63961 8.07839 7.57903 8.23829 7.5791H10.4715C10.5499 7.57902 10.6255 7.60807 10.6836 7.66059C10.7417 7.71311 10.7782 7.78536 10.7861 7.86331C10.8006 8.00858 10.8139 8.12415 10.8265 8.21194C10.952 9.0879 11.2092 9.93984 11.5894 10.7389C11.6494 10.8652 11.6103 11.0162 11.4966 11.097L10.1337 12.0709C10.967 14.0127 12.5144 15.5601 14.4562 16.3934L15.4288 15.033C15.4686 14.9774 15.5266 14.9376 15.5927 14.9204C15.6588 14.9032 15.7289 14.9097 15.7907 14.9389C16.5897 15.3184 17.4414 15.575 18.317 15.6999C18.4048 15.7126 18.5204 15.7265 18.6644 15.7404C18.7422 15.7483 18.8143 15.7849 18.8667 15.843C18.9191 15.9012 18.9481 15.9766 18.948 16.0549H18.9473Z" fill="white"/>
</svg>
