<svg width="27" height="27" viewBox="0 0 27 27" fill="none" xmlns="http://www.w3.org/2000/svg">
<path d="M0 13.2632C0 5.93812 5.93812 0 13.2632 0H18.9474C23.1331 0 26.5263 3.39321 26.5263 7.57895V13.2632C26.5263 20.5882 20.5882 26.5263 13.2632 26.5263C5.93812 26.5263 0 20.5882 0 13.2632Z" fill="#9370FE"/>
<path d="M16.8808 14.9859L13.5511 18.3157L10.2213 14.9859C9.56275 14.3274 9.11427 13.4883 8.93258 12.5749C8.75089 11.6614 8.84415 10.7146 9.20056 9.85417C9.55697 8.99372 10.1605 8.25829 10.9349 7.74086C11.7093 7.22344 12.6197 6.94727 13.5511 6.94727C14.4824 6.94727 15.3928 7.22344 16.1672 7.74086C16.9416 8.25829 17.5451 8.99372 17.9016 9.85417C18.258 10.7146 18.3512 11.6614 18.1695 12.5749C17.9878 13.4883 17.5394 14.3274 16.8808 14.9859ZM13.5511 12.7026C13.8286 12.7026 14.0948 12.5924 14.291 12.3961C14.4872 12.1999 14.5975 11.9337 14.5975 11.6562C14.5975 11.3786 14.4872 11.1125 14.291 10.9162C14.0948 10.72 13.8286 10.6097 13.5511 10.6097C13.2735 10.6097 13.0074 10.72 12.8111 10.9162C12.6149 11.1125 12.5046 11.3786 12.5046 11.6562C12.5046 11.9337 12.6149 12.1999 12.8111 12.3961C13.0074 12.5924 13.2735 12.7026 13.5511 12.7026Z" fill="#F7FBFE"/>
</svg>
