<svg width="60" height="50" viewBox="0 0 60 50" fill="none" xmlns="http://www.w3.org/2000/svg">
<path d="M0 10.5137C4.67257 10.5137 8.46018 14.276 8.46018 18.9173V36.8498C3.78761 36.8498 0 33.0875 0 28.4462V10.5137Z" fill="#9370FE"/>
<path d="M28.531 39.8737C26.4425 41.2802 23.8938 42.1241 21.1327 42.1241C14.1239 42.1241 8.46018 36.8147 8.46018 30.2746C8.46018 23.7345 14.1239 18.4251 21.1327 18.4251C21.7345 18.4251 22.3363 18.4602 22.938 18.5306L28.4602 11.7443C26.1947 10.9708 23.7168 10.5137 21.1327 10.5137C9.45133 10.5137 0 19.3744 0 30.2746C0 41.1747 9.45133 50.0003 21.1327 50.0003C26.1239 50.0003 30.7257 48.3829 34.3717 45.6403L28.531 39.8737Z" fill="#9370FE"/>
<path d="M53.8761 39.8737C51.7876 41.2802 49.2389 42.1241 46.4778 42.1241C39.469 42.1241 33.8053 36.8147 33.8053 30.2746C33.8053 23.7345 39.469 18.4251 46.4778 18.4251C49.3805 18.4251 52.0708 19.3393 54.1946 20.8864L60 15.1199C56.3185 12.2366 51.6106 10.5137 46.4778 10.5137C34.8318 10.5137 25.3451 19.3744 25.3451 30.2394C25.3451 41.1396 34.7964 49.9652 46.4778 49.9652C51.469 49.9652 56.0708 48.3477 59.7168 45.6051L53.8761 39.8737Z" fill="#9370FE"/>
<path d="M4.21239 7.87623C6.53883 7.87623 8.42478 6.11308 8.42478 3.93812C8.42478 1.76315 6.53883 0 4.21239 0C1.88595 0 0 1.76315 0 3.93812C0 6.11308 1.88595 7.87623 4.21239 7.87623Z" fill="#9370FE"/>
</svg>
