<svg width="21" height="20" viewBox="0 0 21 20" fill="none" xmlns="http://www.w3.org/2000/svg">
<path d="M10.3 20.0002H10.2C8.8285 19.9897 7.4729 19.7057 6.21254 19.1649C4.95219 18.624 3.81242 17.837 2.85998 16.8502C1.09382 14.9615 0.0898585 12.4855 0.0418441 9.90009C-0.00617028 7.3147 0.905167 4.80316 2.59998 2.85017C3.69186 1.62651 5.06451 0.68625 6.59998 0.110169C6.77914 0.0412277 6.97436 0.0253123 7.16232 0.0643235C7.35029 0.103335 7.52305 0.195624 7.65998 0.330169C7.78679 0.459491 7.87611 0.620829 7.91838 0.796954C7.96065 0.973079 7.95429 1.15738 7.89998 1.33017C7.35193 2.8311 7.24335 4.45722 7.58698 6.01769C7.9306 7.57817 8.71217 9.00826 9.83998 10.1402C10.9783 11.2645 12.4118 12.0434 13.9745 12.3868C15.5372 12.7301 17.1652 12.6238 18.67 12.0802C18.8491 12.0171 19.0424 12.0064 19.2274 12.0492C19.4124 12.092 19.5814 12.1866 19.7146 12.3219C19.8478 12.4572 19.9398 12.6276 19.9797 12.8133C20.0196 12.9989 20.0058 13.1921 19.94 13.3702C19.4291 14.7339 18.6311 15.9719 17.6 17.0002C16.6408 17.9565 15.5021 18.7138 14.2494 19.2286C12.9966 19.7435 11.6544 20.0057 10.3 20.0002ZM5.45998 2.92017C4.95765 3.27247 4.49791 3.68187 4.08998 4.14017C2.71451 5.71631 1.9734 7.74709 2.01035 9.83868C2.0473 11.9303 2.8597 13.9336 4.28998 15.4602C5.0585 16.2584 5.97924 16.8944 6.99777 17.3307C8.0163 17.7669 9.11196 17.9946 10.22 18.0002H10.3C11.6262 17.9994 12.9331 17.6824 14.1122 17.0754C15.2914 16.4685 16.3088 15.5891 17.08 14.5102C15.5083 14.7138 13.9109 14.5545 12.4104 14.0446C10.9099 13.5346 9.54626 12.6875 8.4242 11.5683C7.30214 10.4491 6.45151 9.08769 5.93766 7.58852C5.4238 6.08935 5.26039 4.49234 5.45998 2.92017Z" fill="#9370FE"/>
</svg>
